PathFileType	4	(X/Y/Z)	HSS_walk2.trc
DataRate	CameraRate	NumFrames	NumMarkers	Units	OrigDataRate	OrigDataStartFrame	OrigNumFrames
120.0	120.0	4	44	mm	120.0	862	984
Frame#	Time		R.Shoulder		Offset		L.Shoulder		R.Elbow		R.Wrist.Radial		R.Wrist		R.Hand		L.Elbow		L.Wrist.Radial		L.Wrist		L.Hand		R.Hip		V.Sacral		L.PSIS		L.Hip		R.Thigh.Upper		R.Thigh.Front		R.Thigh.Rear		X.Shell.Lower.Thigh.Right		R.Knee.Lateral		R.Shank.Upper		R.Shank.Front		R.Shank.Rear		X.Shell.Lower.Shank.Right		R.Ankle.Lateral		R.Heel		R.Toe		L.Thigh.Upper		L.Thigh.Front		L.Thigh.Rear		X.Shell.Lower.Thigh.Left		L.Knee.Lateral		L.Shank.Upper		L.Shank.Front		L.Shank.Rear		X.Shell.Lower.Shank.Left		L.Ankle.Lateral		L.Heel		L.Toe		R.Troc		L.Troc		R.PSIS		L.ASIS		R.ASIS
			X1	Y1	Z1	X2	Y2	Z2	X3	Y3	Z3	X4	Y4	Z4	X5	Y5	Z5	X6	Y6	Z6	X7	Y7	Z7	X8	Y8	Z8	X9	Y9	Z9	X10	Y10	Z10	X11	Y11	Z11	X12	Y12	Z12	X13	Y13	Z13	X14	Y14	Z14	X15	Y15	Z15	X16	Y16	Z16	X17	Y17	Z17	X18	Y18	Z18	X19	Y19	Z19	X20	Y20	Z20	X21	Y21	Z21	X22	Y22	Z22	X23	Y23	Z23	X24	Y24	Z24	X25	Y25	Z25	X26	Y26	Z26	X27	Y27	Z27	X28	Y28	Z28	X29	Y29	Z29	X30	Y30	Z30	X31	Y31	Z31	X32	Y32	Z32	X33	Y33	Z33	X34	Y34	Z34	X35	Y35	Z35	X36	Y36	Z36	X37	Y37	Z37	X38	Y38	Z38	X39	Y39	Z39	X40	Y40	Z40	X41	Y41	Z41	X42	Y42	Z42	X43	Y43	Z43	X44	Y44	Z44

862	7.17500	2519.41455	1445.30566	-32.71450	2423.50342	1359.67297	-323.03882	2549.06348	1459.53284	-395.46750	2392.25708	1108.19580	-10.18949	2423.65454	855.97528	20.87320	2375.87231	872.03046	75.39983	2383.06738	783.59320	75.46615	2656.38525	1105.08838	-465.61359	2896.96729	1041.59070	-472.05780	2913.83911	1080.25452	-413.20456	2981.51978	1040.87366	-456.18964	2577.45386	1002.22308	-63.43734	2454.68604	981.04852	-204.14182	2454.47192	989.04242	-245.76733	2565.69263	1002.41467	-360.53641	2719.70337	684.41547	-47.31411	2761.40063	662.39191	-70.46001	2714.61011	640.26630	-36.49168	2749.07935	620.16016	-60.24477	2731.01733	501.24496	-72.97624	2762.32886	358.73938	-32.51535	2801.96167	326.91461	-57.81397	2743.44653	314.40305	-47.11364	2778.15942	284.04465	-57.09661	2840.96387	69.18574	-113.04310	2810.11353	26.13487	-169.33578	2996.82446	71.11382	-127.26868	2584.58838	657.01324	-360.35822	2598.32202	607.34009	-334.28302	2548.51147	624.24182	-368.76392	2570.33911	587.89862	-355.16983	2484.50977	480.78152	-329.47067	2373.80200	303.66159	-362.06485	2387.34570	271.91782	-340.03696	2328.68872	283.58273	-350.62799	2336.50488	245.28038	-347.18607	2270.33301	96.86271	-288.82364	2200.96191	80.63529	-244.31061	2397.26270	34.71347	-267.58759	2620.83350	854.81085	-34.43155	2564.80322	861.41510	-398.33197	2457.74097	985.26923	-160.83476	2635.37524	967.79529	-326.43066	2641.35400	968.86298	-101.94379
863	7.18333	2529.50659	1444.12524	-31.24131	2433.87695	1358.99426	-322.05121	2559.46143	1459.32288	-393.70856	2402.22217	1107.33459	-9.33726	2432.82031	855.21350	22.45496	2384.87305	871.47552	76.90057	2391.33350	783.04047	76.55336	2665.78882	1104.02563	-464.20145	2905.81812	1041.43286	-470.28885	2922.79614	1080.87402	-411.92703	2990.54907	1041.86987	-454.98019	2588.70874	1001.51135	-62.83747	2466.72314	980.86206	-203.57486	2466.16260	988.68140	-245.21773	2577.27271	1001.49719	-360.30157	2731.50586	683.77753	-46.99491	2773.32349	661.95709	-69.99715	2726.06641	639.64948	-36.60704	2760.68701	619.67175	-60.15055	2742.32349	500.54364	-73.41411	2771.06494	356.33310	-34.03578	2809.84375	323.90872	-59.11272	2751.07983	312.73892	-48.39006	2784.76538	281.75198	-59.08007	2841.45728	66.14748	-115.82786	2809.87427	24.90420	-169.37051	2997.52295	62.42818	-128.51979	2594.47705	655.93274	-360.17798	2607.97852	606.24487	-333.70502	2558.38281	623.03455	-368.43600	2580.00928	586.86584	-354.61813	2493.73291	479.99130	-329.35345	2379.79883	305.35489	-362.31537	2392.69360	272.68271	-338.75302	2334.22876	285.60736	-349.61621	2341.18188	247.50108	-347.37811	2272.12305	100.07172	-289.31137	2202.82349	85.44390	-244.83487	2397.43628	34.65938	-267.73312	2632.22778	854.14777	-34.60914	2575.46924	860.48480	-397.68588	2469.47754	985.02405	-160.24884	2646.64404	966.65997	-325.82385	2652.90234	968.34174	-101.17411
864	7.19167	2539.89282	1443.24939	-29.78352	2444.45654	1358.52319	-320.72903	2569.80615	1459.21631	-392.15576	2412.85522	1106.62891	-8.33807	2442.30737	854.29126	23.57940	2394.13232	870.96674	78.06660	2399.97754	782.40436	77.87363	2672.69678	1103.28613	-462.88623	2914.40479	1041.24121	-468.71225	2931.21826	1081.23547	-410.70117	2999.10938	1042.38440	-453.74338	2600.53247	1001.14301	-62.51775	2478.37085	980.88208	-202.89838	2478.09985	988.61047	-244.50974	2589.19946	1000.75073	-359.97070	2742.97949	683.26898	-46.25895	2784.98828	661.37207	-68.62183	2736.87695	639.06195	-36.49326	2771.61133	618.97876	-59.60276	2753.01001	499.73709	-73.76866	2779.17383	354.57822	-35.27852	2817.20923	322.09393	-61.02723	2758.14917	311.41168	-49.99645	2791.17773	279.92542	-61.09790	2845.78418	66.56857	-117.62167	2812.84473	28.04924	-170.71445	3002.48315	52.25460	-129.25790	2604.61182	654.86853	-359.43756	2618.11084	605.15204	-333.34076	2568.45874	622.16522	-367.59766	2590.14478	585.80518	-354.07391	2503.35107	479.39957	-328.97214	2385.89771	306.81635	-362.43198	2398.16919	274.52884	-340.12436	2339.92334	288.27377	-350.65207	2346.13428	249.92990	-347.61508	2274.23828	103.36600	-289.85931	2204.85767	90.55753	-245.67722	2397.70776	34.64428	-267.92767	2643.93286	853.38873	-34.03692	2586.63306	859.90442	-397.13205	2480.81909	984.88757	-159.58699	2658.13550	965.57343	-325.22992	2664.35620	967.86102	-100.37543
865	7.20000	2550.02588	1442.26746	-28.33770	2454.86572	1358.01746	-319.02432	2579.98315	1459.22449	-390.57953	2423.71021	1105.78369	-7.47533	2452.07764	853.47760	24.99259	2404.24561	870.45093	79.48072	2409.52734	781.83771	79.35471	2680.51709	1102.07520	-461.65390	2922.55371	1040.62671	-467.19110	2939.32935	1081.00964	-409.55774	3007.26172	1042.22168	-452.51233	2612.41846	1001.17957	-62.33278	2490.22949	981.14020	-202.13510	2490.48584	988.79596	-243.90518	2600.92993	1000.16479	-359.76440	2753.90112	683.11865	-45.23032	2796.27246	660.78455	-66.85074	2747.08789	638.95947	-35.93555	2781.88501	618.50342	-58.51857	2762.49341	499.69827	-73.70628	2786.28882	354.05429	-36.48755	2824.49707	321.41251	-62.43121	2765.44531	311.05322	-51.98098	2798.67651	279.71191	-62.85159	2854.12451	67.55283	-117.13524	2817.27979	31.39153	-170.13747	3009.00635	45.04228	-129.45886	2615.50366	653.86346	-358.53885	2628.87891	604.08136	-332.87216	2579.20386	621.12317	-367.22516	2600.66211	584.62164	-353.75519	2513.68652	478.58475	-328.88739	2392.55957	308.71060	-362.26089	2404.06909	276.12027	-340.98117	2346.16992	290.94901	-349.58060	2351.42432	252.67331	-347.87054	2276.95801	107.37179	-290.84698	2207.37988	96.42928	-246.21770	2398.04419	34.63992	-268.00104	2655.79028	852.87775	-33.93258	2598.36230	859.11536	-396.04971	2492.35156	985.48254	-158.95113	2669.94800	964.59497	-324.61060	2675.99316	967.98169	-99.68328
